<svg width="50" height="51" viewBox="0 0 50 51" fill="none" xmlns="http://www.w3.org/2000/svg">
<g id="facebook-messenger">
<path id="Vector" d="M25.0537 1.51025C11.3789 1.51025 0.78125 11.5044 0.78125 25.0034C0.78125 32.064 3.68262 38.1655 8.40527 42.3804C9.2207 43.1138 9.05273 43.5386 9.19141 48.0669C9.20233 48.3841 9.29068 48.6938 9.44878 48.969C9.60687 49.2442 9.8299 49.4765 10.0984 49.6457C10.3669 49.8149 10.6727 49.9159 10.9892 49.9398C11.3057 49.9636 11.6232 49.9097 11.9141 49.7827C17.0811 47.5073 17.1475 47.3276 18.0234 47.5659C32.9932 51.686 49.2188 42.106 49.2188 25.0034C49.2188 11.5044 38.7295 1.51025 25.0537 1.51025ZM39.6279 19.5894L32.499 30.8755C32.2298 31.2999 31.8759 31.6641 31.4593 31.9453C31.0428 32.2265 30.5727 32.4187 30.0784 32.5097C29.5841 32.6007 29.0764 32.5887 28.587 32.4744C28.0976 32.36 27.6371 32.1458 27.2344 31.8452L21.5625 27.6001C21.3089 27.4099 21.0005 27.3071 20.6836 27.3071C20.3666 27.3071 20.0582 27.4099 19.8047 27.6001L12.1514 33.4048C11.1299 34.1792 9.79199 32.9556 10.4805 31.8745L17.6094 20.5884C17.8785 20.1639 18.2324 19.7995 18.6489 19.5183C19.0655 19.237 19.5356 19.0448 20.0299 18.9537C20.5242 18.8627 21.032 18.8747 21.5214 18.9892C22.0108 19.1036 22.4713 19.3179 22.874 19.6187L28.5439 23.8628C28.7975 24.053 29.1059 24.1558 29.4229 24.1558C29.7398 24.1558 30.0482 24.053 30.3018 23.8628L37.959 18.064C38.9785 17.2847 40.3164 18.5073 39.6279 19.5894Z" fill="#00A1FF"/>
</g>
</svg>
