<svg width="122" height="51" viewBox="0 0 122 51" fill="none" xmlns="http://www.w3.org/2000/svg">
<rect width="122" height="51" fill="#E5E5E5"/>
<g id="Home" clip-path="url(#clip0_0_1)">
<rect width="1920" height="5360" transform="translate(-318 -4980)" fill="white"/>
<g id="Frame 103">
<g id="Footer">
<rect id="Rectangle 60" x="-318" y="-102.271" width="1920" height="477" fill="black"/>
<g id="Group 81">
<path id="footer-logo" d="M107.714 20.8396H100.514L96.5864 31.7075L92.6591 20.8396H85.4591L93.3546 39.2251L88.188 50.665H2.27273C1.01753 50.665 0 49.6488 0 48.3952V2.99882C0 1.74524 1.01753 0.729004 2.27273 0.729004H119.318C120.573 0.729004 121.591 1.74524 121.591 2.99882V48.3952C121.591 49.6488 120.573 50.665 119.318 50.665H95.3787L107.714 20.8396ZM54.0409 24.4758V20.8396H47.4955V40.4508H54.0409V33.2192C54.0409 30.0324 55.7591 27.9078 57.6409 27.3767C58.8273 27.0498 60.0136 27.009 61.2409 27.3767V20.1859C57.5591 20.431 55.3909 21.6567 54.0409 24.4758ZM75.0682 35.3846C74.2909 35.3846 73.5136 35.262 73.0227 34.976L84.6409 28.0304C83.1273 21.5342 78.1364 20.1859 75.3136 20.1859C68.4818 20.1859 64.35 24.8436 64.35 30.6452C64.35 36.4469 68.4818 41.1045 75.3136 41.1045C78.4636 41.1045 81.1636 39.9605 83.3318 37.8768L79.9773 33.5052C78.7909 34.6083 77.0318 35.3846 75.0682 35.3846ZM75.3136 25.9058C76.3773 25.9058 77.1136 26.437 77.4409 26.9681L70.65 31.0129C70.2409 27.9487 72.5318 25.9058 75.3136 25.9058Z" fill="white"/>
</g>
</g>
</g>
</g>
<defs>
<clipPath id="clip0_0_1">
<rect width="1920" height="5360" fill="white" transform="translate(-318 -4980)"/>
</clipPath>
</defs>
</svg>
