<svg width="25" height="26" viewBox="0 0 25 26" fill="none" xmlns="http://www.w3.org/2000/svg">
<g id="instagram" clip-path="url(#clip0_3369_1221)">
<path id="Vector" d="M12.5028 6.81932C8.95566 6.81932 6.09453 9.68108 6.09453 13.229C6.09453 16.7769 8.95566 19.6387 12.5028 19.6387C16.0499 19.6387 18.911 16.7769 18.911 13.229C18.911 9.68108 16.0499 6.81932 12.5028 6.81932ZM12.5028 17.3961C10.2105 17.3961 8.33659 15.5273 8.33659 13.229C8.33659 10.9307 10.205 9.06187 12.5028 9.06187C14.8006 9.06187 16.669 10.9307 16.669 13.229C16.669 15.5273 14.795 17.3961 12.5028 17.3961ZM20.6679 6.55713C20.6679 7.38833 19.9986 8.05217 19.1732 8.05217C18.3422 8.05217 17.6785 7.38275 17.6785 6.55713C17.6785 5.73151 18.3477 5.0621 19.1732 5.0621C19.9986 5.0621 20.6679 5.73151 20.6679 6.55713ZM24.9122 8.07448C24.8173 6.0718 24.36 4.29784 22.8932 2.83628C21.432 1.37471 19.6584 0.917278 17.6562 0.816865C15.5926 0.699717 9.40742 0.699717 7.34384 0.816865C5.34718 0.911699 3.57362 1.36914 2.1068 2.8307C0.639989 4.29226 0.188232 6.06622 0.0878416 8.0689C-0.0292805 10.1329 -0.0292805 16.3195 0.0878416 18.3835C0.182655 20.3862 0.639989 22.1602 2.1068 23.6217C3.57362 25.0833 5.34161 25.5407 7.34384 25.6411C9.40742 25.7583 15.5926 25.7583 17.6562 25.6411C19.6584 25.5463 21.432 25.0889 22.8932 23.6217C24.3544 22.1602 24.8118 20.3862 24.9122 18.3835C25.0293 16.3195 25.0293 10.1385 24.9122 8.07448ZM22.2462 20.5982C21.8112 21.6916 20.969 22.5339 19.8703 22.9746C18.225 23.6273 14.321 23.4767 12.5028 23.4767C10.6846 23.4767 6.77496 23.6217 5.13525 22.9746C4.04211 22.5395 3.19994 21.6972 2.75934 20.5982C2.1068 18.9525 2.25739 15.0476 2.25739 13.229C2.25739 11.4104 2.11238 7.4999 2.75934 5.85982C3.19437 4.76644 4.03653 3.92408 5.13525 3.48338C6.78054 2.8307 10.6846 2.98132 12.5028 2.98132C14.321 2.98132 18.2306 2.83628 19.8703 3.48338C20.9635 3.91851 21.8056 4.76086 22.2462 5.85982C22.8988 7.50547 22.7482 11.4104 22.7482 13.229C22.7482 15.0476 22.8988 18.9581 22.2462 20.5982Z" fill="#999999"/>
</g>
<defs>
<clipPath id="clip0_3369_1221">
<rect width="25" height="25" fill="white" transform="translate(0 0.729004)"/>
</clipPath>
</defs>
</svg>
