<svg width="25" height="26" viewBox="0 0 25 26" fill="none" xmlns="http://www.w3.org/2000/svg">
<g id="pinterest-p" clip-path="url(#clip0_3369_1227)">
<path id="Vector" d="M13.2182 1.04639C8.07906 1.04639 3 4.4725 3 10.0174C3 13.5437 4.98354 15.5473 6.18568 15.5473C6.68157 15.5473 6.96708 14.1648 6.96708 13.7741C6.96708 13.3083 5.77996 12.3165 5.77996 10.378C5.77996 6.35085 8.84543 3.49576 12.8125 3.49576C16.2236 3.49576 18.7481 5.43422 18.7481 8.99557C18.7481 11.6553 17.6812 16.6442 14.225 16.6442C12.9778 16.6442 11.9109 15.7426 11.9109 14.4503C11.9109 12.5569 13.2333 10.7237 13.2333 8.77017C13.2333 5.45425 8.52987 6.05533 8.52987 10.0625C8.52987 10.904 8.63506 11.8356 9.01073 12.602C8.31949 15.5773 6.90697 20.0102 6.90697 23.0757C6.90697 24.0224 7.04221 24.9541 7.13237 25.9007C7.30268 26.0911 7.21753 26.071 7.47799 25.9759C10.0025 22.5197 9.91234 21.8435 11.0544 17.3204C11.6705 18.4925 13.2633 19.1236 14.5256 19.1236C19.8451 19.1236 22.2343 13.9394 22.2343 9.26606C22.2343 4.29218 17.9367 1.04639 13.2182 1.04639Z" fill="#999999"/>
</g>
<defs>
<clipPath id="clip0_3369_1227">
<rect width="25" height="25" fill="white" transform="translate(0 0.729004)"/>
</clipPath>
</defs>
</svg>
