<svg width="25" height="26" viewBox="0 0 25 26" fill="none" xmlns="http://www.w3.org/2000/svg">
<g id="twitter">
<path id="Vector" d="M22.4302 8.13691C22.446 8.35898 22.446 8.5811 22.446 8.80317C22.446 15.5766 17.2906 23.3812 7.86802 23.3812C4.96509 23.3812 2.26841 22.5404 0 21.0811C0.412451 21.1287 0.808984 21.1445 1.2373 21.1445C3.63257 21.1445 5.83755 20.3355 7.59834 18.9555C5.3458 18.9079 3.45811 17.4326 2.80771 15.4021C3.125 15.4497 3.44224 15.4814 3.77539 15.4814C4.2354 15.4814 4.69546 15.418 5.12373 15.307C2.77603 14.8311 1.01519 12.7689 1.01519 10.2784V10.215C1.69727 10.5957 2.49048 10.8336 3.33115 10.8653C1.95107 9.94526 1.04692 8.37485 1.04692 6.59819C1.04692 5.64644 1.30068 4.77397 1.74487 4.01255C4.26709 7.12168 8.05835 9.1521 12.3096 9.37422C12.2303 8.99351 12.1827 8.59697 12.1827 8.20039C12.1827 5.37676 14.4669 3.07666 17.3064 3.07666C18.7816 3.07666 20.1141 3.69531 21.05 4.69468C22.208 4.47261 23.3184 4.04429 24.302 3.45737C23.9212 4.64712 23.1122 5.64648 22.0494 6.28096C23.0805 6.16997 24.0799 5.88437 24.9999 5.48784C24.302 6.50303 23.4295 7.40718 22.4302 8.13691Z" fill="#999999"/>
</g>
</svg>
